<svg width="173" height="36" viewBox="0 0 173 36" fill="none" xmlns="http://www.w3.org/2000/svg">
<path d="M29.8398 16.9045C30.0314 17.2378 30.1322 17.6156 30.1322 18C30.1322 18.3845 30.0314 18.7622 29.8398 19.0955L25.531 26.5289C25.3385 26.8608 25.0622 27.1363 24.7298 27.3279C24.3975 27.5194 24.0206 27.6204 23.637 27.6206L15.0656 27.6206C14.6846 27.6177 14.3109 27.5155 13.9815 27.324C13.652 27.1326 13.3782 26.8585 13.187 26.5289L8.87818 19.0955C8.68663 18.7622 8.58582 18.3845 8.58582 18C8.58582 17.6156 8.68663 17.2378 8.87818 16.9045L11.2583 12.8001L16.5546 21.8575C16.6418 22.0126 16.7691 22.1413 16.9232 22.2302C17.0772 22.3191 17.2524 22.3649 17.4302 22.3628L21.2877 22.3628C21.4656 22.3649 21.6408 22.3191 21.7948 22.2302C21.9489 22.1413 22.0762 22.0126 22.1634 21.8575L24.0921 18.4899C24.1795 18.3386 24.2255 18.167 24.2255 17.9923C24.2255 17.8176 24.1795 17.646 24.0921 17.4947L15.3973 2.45046C15.0956 1.92868 14.662 1.49541 14.14 1.19412C13.618 0.892825 13.0259 0.7341 12.4232 0.733871L11.644 0.733871C10.9544 0.733608 10.2769 0.914936 9.6797 1.25961C9.08244 1.60428 8.58648 2.10015 8.24169 2.69734L0.526706 16.0404C0.181668 16.6372 -7.84862e-07 17.3145 -7.54727e-07 18.0039C-7.24593e-07 18.6933 0.181668 19.3705 0.526706 19.9673L8.2417 33.3104C8.58697 33.9069 9.08314 34.402 9.68036 34.746C10.2776 35.0899 10.9548 35.2707 11.644 35.27L27.074 35.27C27.7636 35.2703 28.441 35.089 29.0383 34.7443C29.6355 34.3996 30.1315 33.9037 30.4763 33.3066L38.1913 19.9635C38.5363 19.3666 38.718 18.6894 38.718 18C38.718 17.3106 38.5363 16.6334 38.1913 16.0366L30.4763 2.69348C30.1315 2.09629 29.6355 1.60042 29.0383 1.25575C28.441 0.911074 27.7636 0.729754 27.074 0.730014L20.5162 0.730014L29.8398 16.9045Z" fill="#475BE8"/>
<path d="M52.468 28V10H55.4805V17.575H64.0055V10H67.0055V28H64.0055V20.4H55.4805V28H52.468ZM76.6475 28.375C75.2808 28.375 74.0808 28.0792 73.0475 27.4875C72.0142 26.8958 71.2058 26.075 70.6225 25.025C70.0475 23.975 69.76 22.7667 69.76 21.4C69.76 19.925 70.0433 18.6458 70.61 17.5625C71.1767 16.4708 71.9642 15.625 72.9725 15.025C73.9808 14.425 75.1475 14.125 76.4725 14.125C77.8725 14.125 79.06 14.4542 80.035 15.1125C81.0183 15.7625 81.7475 16.6833 82.2225 17.875C82.6975 19.0667 82.8767 20.4708 82.76 22.0875H79.7725V20.9875C79.7642 19.5208 79.5058 18.45 78.9975 17.775C78.4892 17.1 77.6892 16.7625 76.5975 16.7625C75.3642 16.7625 74.4475 17.1458 73.8475 17.9125C73.2475 18.6708 72.9475 19.7833 72.9475 21.25C72.9475 22.6167 73.2475 23.675 73.8475 24.425C74.4475 25.175 75.3225 25.55 76.4725 25.55C77.2142 25.55 77.8517 25.3875 78.385 25.0625C78.9267 24.7292 79.3433 24.25 79.635 23.625L82.61 24.525C82.0933 25.7417 81.2933 26.6875 80.21 27.3625C79.135 28.0375 77.9475 28.375 76.6475 28.375ZM71.9975 22.0875V19.8125H81.285V22.0875H71.9975ZM89.0799 28.375C88.1049 28.375 87.2799 28.1917 86.6049 27.825C85.9299 27.45 85.4174 26.9542 85.0674 26.3375C84.7258 25.7208 84.5549 25.0417 84.5549 24.3C84.5549 23.65 84.6633 23.0667 84.8799 22.55C85.0966 22.025 85.4299 21.575 85.8799 21.2C86.3299 20.8167 86.9133 20.5042 87.6299 20.2625C88.1716 20.0875 88.8049 19.9292 89.5299 19.7875C90.2633 19.6458 91.0549 19.5167 91.9049 19.4C92.7633 19.275 93.6591 19.1417 94.5924 19L93.5174 19.6125C93.5258 18.6792 93.3174 17.9917 92.8924 17.55C92.4674 17.1083 91.7508 16.8875 90.7424 16.8875C90.1341 16.8875 89.5466 17.0292 88.9799 17.3125C88.4133 17.5958 88.0174 18.0833 87.7924 18.775L85.0424 17.9125C85.3758 16.7708 86.0091 15.8542 86.9424 15.1625C87.8841 14.4708 89.1508 14.125 90.7424 14.125C91.9424 14.125 92.9966 14.3208 93.9049 14.7125C94.8216 15.1042 95.5008 15.7458 95.9424 16.6375C96.1841 17.1125 96.3299 17.6 96.3799 18.1C96.4299 18.5917 96.4549 19.1292 96.4549 19.7125V28H93.8174V25.075L94.2549 25.55C93.6466 26.525 92.9341 27.2417 92.1174 27.7C91.3091 28.15 90.2966 28.375 89.0799 28.375ZM89.6799 25.975C90.3633 25.975 90.9466 25.8542 91.4299 25.6125C91.9133 25.3708 92.2966 25.075 92.5799 24.725C92.8716 24.375 93.0674 24.0458 93.1674 23.7375C93.3258 23.3542 93.4133 22.9167 93.4299 22.425C93.4549 21.925 93.4674 21.5208 93.4674 21.2125L94.3924 21.4875C93.4841 21.6292 92.7049 21.7542 92.0549 21.8625C91.4049 21.9708 90.8466 22.075 90.3799 22.175C89.9133 22.2667 89.5008 22.3708 89.1424 22.4875C88.7924 22.6125 88.4966 22.7583 88.2549 22.925C88.0133 23.0917 87.8258 23.2833 87.6924 23.5C87.5674 23.7167 87.5049 23.9708 87.5049 24.2625C87.5049 24.5958 87.5883 24.8917 87.7549 25.15C87.9216 25.4 88.1633 25.6 88.4799 25.75C88.8049 25.9 89.2049 25.975 89.6799 25.975ZM99.9592 28V9.625H102.972V28H99.9592ZM113.204 28.375C111.887 28.375 110.783 28.0625 109.891 27.4375C108.999 26.8125 108.329 25.9625 107.879 24.8875C107.429 23.8042 107.204 22.5917 107.204 21.25C107.204 19.8917 107.429 18.675 107.879 17.6C108.329 16.525 108.987 15.6792 109.854 15.0625C110.729 14.4375 111.808 14.125 113.091 14.125C114.366 14.125 115.47 14.4375 116.404 15.0625C117.345 15.6792 118.074 16.525 118.591 17.6C119.108 18.6667 119.366 19.8833 119.366 21.25C119.366 22.6 119.112 23.8125 118.604 24.8875C118.095 25.9625 117.379 26.8125 116.454 27.4375C115.529 28.0625 114.445 28.375 113.204 28.375ZM106.691 34V14.5H109.354V23.975H109.729V34H106.691ZM112.741 25.675C113.524 25.675 114.17 25.4792 114.679 25.0875C115.187 24.6958 115.562 24.1667 115.804 23.5C116.054 22.825 116.179 22.075 116.179 21.25C116.179 20.4333 116.054 19.6917 115.804 19.025C115.554 18.35 115.166 17.8167 114.641 17.425C114.116 17.025 113.449 16.825 112.641 16.825C111.874 16.825 111.249 17.0125 110.766 17.3875C110.283 17.7542 109.924 18.2708 109.691 18.9375C109.466 19.5958 109.354 20.3667 109.354 21.25C109.354 22.125 109.466 22.8958 109.691 23.5625C109.924 24.2292 110.287 24.75 110.779 25.125C111.279 25.4917 111.933 25.675 112.741 25.675ZM131.459 28V21.5C131.459 21.075 131.43 20.6042 131.371 20.0875C131.313 19.5708 131.176 19.075 130.959 18.6C130.751 18.1167 130.434 17.7208 130.009 17.4125C129.592 17.1042 129.026 16.95 128.309 16.95C127.926 16.95 127.546 17.0125 127.171 17.1375C126.796 17.2625 126.455 17.4792 126.146 17.7875C125.846 18.0875 125.605 18.5042 125.421 19.0375C125.238 19.5625 125.146 20.2375 125.146 21.0625L123.359 20.3C123.359 19.15 123.58 18.1083 124.021 17.175C124.471 16.2417 125.13 15.5 125.996 14.95C126.863 14.3917 127.93 14.1125 129.196 14.1125C130.196 14.1125 131.021 14.2792 131.671 14.6125C132.321 14.9458 132.838 15.3708 133.221 15.8875C133.605 16.4042 133.888 16.9542 134.071 17.5375C134.255 18.1208 134.371 18.675 134.421 19.2C134.48 19.7167 134.509 20.1375 134.509 20.4625V28H131.459ZM122.096 28V10H124.784V19.475H125.146V28H122.096ZM139.546 34L142.146 26.8625L142.196 28.9625L136.308 14.5H139.446L143.621 25.2H142.821L146.883 14.5H149.896L142.371 34H139.546Z" fill="#11142D"/>
</svg>
